HIERARCHY
ROOT Hips
{
  OFFSET 0 89.5177 0.535
  CHANNELS 6 Xposition Yposition Zposition Zrotation Xrotation Yrotation
  JOINT Spine
  {
    OFFSET 12.0259 -0.162855 1.69034e-005
    CHANNELS 3 Zrotation Xrotation Yrotation
    JOINT Spine1
    {
      OFFSET 15.3169 -0.0121922 0
      CHANNELS 3 Zrotation Xrotation Yrotation
      JOINT Spine2
      {
        OFFSET 15.3176 -0.0121908 0
        CHANNELS 3 Zrotation Xrotation Yrotation
        JOINT Neck
        {
          OFFSET 19.9142 1.56338 0
          CHANNELS 3 Zrotation Xrotation Yrotation
          JOINT Head
          {
            OFFSET 6.92651 0 0
            CHANNELS 3 Zrotation Xrotation Yrotation
            End Site
            {
              OFFSET 20.7666 0 0
            }
          }
          JOINT LeftShoulder
          {
            OFFSET -6.20654 0.708824 7.28219
            CHANNELS 3 Zrotation Xrotation Yrotation
            JOINT LeftArm
            {
              OFFSET 14.108 0 -1.52588e-005
              CHANNELS 3 Zrotation Xrotation Yrotation
              JOINT LeftForeArm
              {
                OFFSET 28.5802 0 0
                CHANNELS 3 Zrotation Xrotation Yrotation
                JOINT LeftHand
                {
                  OFFSET 27.092 0 0
                  CHANNELS 3 Zrotation Xrotation Yrotation
                  End Site
                  {
                    OFFSET 9.55928 -0.186424 0.145352
                  }
                }
              }
            }
          }
          JOINT RightShoulder
          {
            OFFSET -6.20654 0.708866 -7.28218
            CHANNELS 3 Zrotation Xrotation Yrotation
            JOINT RightArm
            {
              OFFSET 14.108 0 1.52588e-005
              CHANNELS 3 Zrotation Xrotation Yrotation
              JOINT RightForeArm
              {
                OFFSET 28.5802 0 0
                CHANNELS 3 Zrotation Xrotation Yrotation
                JOINT RightHand
                {
                  OFFSET 27.092 0 0
                  CHANNELS 3 Zrotation Xrotation Yrotation
                  End Site
                  {
                    OFFSET 9.55929 -0.186417 -0.145354
                  }
                }
              }
            }
          }
        }
      }
    }
  }
  JOINT LeftUpLeg
  {
    OFFSET 0.005 -0.535 8.837
    CHANNELS 3 Zrotation Xrotation Yrotation
    JOINT LeftLeg
    {
      OFFSET 39.9035 0 0
      CHANNELS 3 Zrotation Xrotation Yrotation
      JOINT LeftFoot
      {
        OFFSET 39.6689 0 0
        CHANNELS 3 Zrotation Xrotation Yrotation
        JOINT LeftToe
        {
          OFFSET 10.1624 13.6296 0
          CHANNELS 3 Zrotation Xrotation Yrotation
          End Site
          {
            OFFSET 8.38147 0 0
          }
        }
      }
    }
  }
  JOINT RightUpLeg
  {
    OFFSET 0.005 -0.535 -8.837
    CHANNELS 3 Zrotation Xrotation Yrotation
    JOINT RightLeg
    {
      OFFSET 39.9035 0 0
      CHANNELS 3 Zrotation Xrotation Yrotation
      JOINT RightFoot
      {
        OFFSET 39.6689 0 0
        CHANNELS 3 Zrotation Xrotation Yrotation
        JOINT RightToe
        {
          OFFSET 10.1624 13.6296 0
          CHANNELS 3 Zrotation Xrotation Yrotation
          End Site
          {
            OFFSET 8.38147 0 0
          }
        }
      }
    }
  }
}
MOTION
Frames:	17
Frame Time:	0.0333333
257.811 89.7809 21.8232 -20.8842 -79.9487 -106.827 3.43544 -1.53788 -0.943441 6.84892 -3.12888 -1.79383 6.84892 -3.12888 -1.79384 -8.30748e-012 -9.0191e-006 -5.27751e-005 0.688422 -1.47863 5.85562 -178.379 -11.9675 -82.2277 9.43373 -40.6327 25.4052 -17.7954 3.18055e-015 -1.59028e-015 -63.9807 -32.1132 -53.508 179.943 12.2156 90.2703 47.3477 63.6677 -66.2607 -11.1568 0 7.95139e-016 -56.9243 21.7658 42.561 5.8814 13.0391 178.928 -14.4718 -1.59028e-015 -1.39149e-015 8.17606 4.1926 -9.09005 90 -7.20594e-016 -7.95139e-016 6.87445 -8.88402 178.388 -13.5572 0 7.95139e-016 12.8804 -2.21197 -0.0566679 90 1.09332e-015 -4.77083e-015 
257.849 89.7842 21.8657 -21.1191 -79.9565 -107.068 3.4315 -1.52655 -0.941572 6.84121 -3.10606 -1.79087 6.84121 -3.10606 -1.79088 -8.30907e-012 -9.0191e-006 -5.27751e-005 0.706579 -1.45576 5.86969 -178.387 -11.9547 -82.2582 9.43666 -40.665 25.1908 -17.8604 0 1.59028e-015 -63.9452 -32.0744 -53.4229 179.935 12.1791 90.3089 47.575 63.707 -66.3403 -11.2098 -3.18055e-015 -0 -56.9561 21.8348 42.6721 5.82589 13.0781 178.957 -14.4769 1.59028e-015 1.98785e-016 8.11804 4.15739 -9.01247 90 -3.47873e-016 7.95139e-016 6.79443 -8.89062 178.412 -13.6212 0 -0 12.9236 -2.24686 -0.0452872 90 -4.47266e-016 -6.36111e-015 
257.889 89.7842 21.9135 -21.2355 -79.9682 -107.202 3.42978 -1.52338 -0.932287 6.83806 -3.09915 -1.77254 6.83806 -3.09915 -1.77255 -8.30748e-012 -9.0191e-006 -5.27751e-005 0.666346 -1.45009 5.83765 -178.386 -11.9682 -82.2634 9.42679 -40.6923 25.0464 -17.8755 0 6.36111e-015 -63.9943 -32.1407 -53.5541 179.923 12.1551 90.3675 47.5724 63.6907 -66.2591 -11.2538 0 -3.18055e-015 -56.9575 21.8551 42.6993 5.75141 13.1024 179.006 -14.5099 0 5.96354e-016 8.0997 4.17188 -9.04428 90 -1.44119e-015 7.95139e-016 6.75514 -8.87137 178.463 -13.6112 1.59028e-015 1.19271e-015 12.8872 -2.23138 -0.0710417 90 -2.48481e-016 -1.59028e-015 
257.921 89.7844 21.9563 -21.3011 -79.946 -107.276 3.43705 -1.5243 -0.925224 6.85301 -3.09131 -1.75844 6.85301 -3.09131 -1.75844 -8.30907e-012 -9.0191e-006 -5.27751e-005 0.562068 -1.42606 5.88776 -178.388 -11.9339 -82.2498 9.44798 -40.7371 24.9152 -17.7933 0 -4.77083e-015 -63.89 -32.0963 -53.3858 179.916 12.1268 90.3995 47.7189 63.7343 -66.3772 -11.2462 3.18055e-015 -0 -56.8986 21.914 42.7299 5.7015 13.1262 179.046 -14.5696 -1.59028e-015 -9.93923e-016 8.0772 4.18928 -9.08233 90 -2.16178e-015 2.38542e-015 6.71785 -8.84352 178.486 -13.6707 -1.59028e-015 -7.95139e-016 12.905 -2.24808 -0.0688316 90 -1.49089e-016 -1.59028e-015 
257.942 89.7844 21.989 -21.1532 -79.9495 -107.127 3.44692 -1.52631 -0.922458 6.87277 -3.09697 -1.75247 6.87277 -3.09697 -1.75248 -8.30748e-012 -9.0191e-006 -5.27751e-005 0.466072 -1.50046 5.91862 -178.403 -11.8343 -82.2554 9.4739 -40.6154 24.7894 -17.7914 -6.36111e-015 3.18055e-015 -63.7786 -32.1527 -53.2712 179.918 12.0849 90.3924 47.6807 63.7098 -66.3269 -11.2841 3.18055e-015 -1.59028e-015 -56.9461 21.8478 42.6895 5.68294 13.1062 179.05 -14.5537 -3.18055e-015 -3.97569e-016 7.96764 4.13627 -8.96584 90 -1.98785e-016 -1.59028e-015 6.68237 -8.88433 178.498 -13.7149 0 3.97569e-016 12.9213 -2.25735 -0.0669454 90 4.47266e-016 -1.59028e-015 
257.956 89.7841 22.0188 -20.9589 -79.9817 -106.922 3.44862 -1.52833 -0.918235 6.87607 -3.10901 -1.74362 6.87607 -3.10901 -1.74363 -8.3043e-012 -9.0191e-006 -5.27751e-005 0.3876 -1.63636 5.98096 -178.411 -11.7363 -82.2336 9.47316 -40.4978 24.6759 -17.7367 6.36111e-015 1.59028e-015 -63.723 -32.1308 -53.1816 179.916 12.0702 90.4016 47.5351 63.6471 -66.2469 -11.3143 0 2.38542e-015 -56.935 21.9655 42.8175 5.63792 13.0605 179.056 -14.5523 0 -0 8.03183 4.16065 -9.01951 90 1.93815e-015 7.95139e-016 6.63995 -8.90929 178.502 -13.7305 1.59028e-015 1.19271e-015 12.9232 -2.25021 -0.0932558 90 4.96962e-016 -0 
257.972 89.7835 22.0407 -20.9417 -80.0207 -106.887 3.43514 -1.52925 -0.912567 6.84926 -3.10979 -1.73262 6.84926 -3.10979 -1.73263 -8.31066e-012 -9.0191e-006 -5.27751e-005 0.418504 -1.74326 6.00784 -178.41 -11.6984 -82.2056 9.4846 -40.5357 24.6931 -17.6476 9.54166e-015 -1.59028e-015 -63.6769 -32.1821 -53.1867 179.91 12.0261 90.4305 47.4737 63.5805 -66.2316 -11.3283 -6.36111e-015 -0 -56.8962 22.0006 42.8067 5.59863 13.0524 179.062 -14.5327 0 -1.98785e-016 8.04986 4.19951 -9.10494 90 1.73937e-015 7.95139e-016 6.56565 -8.9517 178.495 -13.7748 -1.59028e-015 3.97569e-016 12.9222 -2.2735 -0.0891772 90 4.96962e-016 -1.59028e-015 
257.976 89.783 22.0547 -20.997 -80.045 -106.932 3.42207 -1.52359 -0.899953 6.82353 -3.09756 -1.70809 6.82353 -3.09756 -1.7081 -8.30589e-012 -9.0191e-006 -5.27751e-005 0.48175 -1.79603 5.9523 -178.403 -11.6886 -82.1641 9.51887 -40.5692 24.7888 -17.6523 -6.36111e-015 -6.36111e-015 -63.6785 -32.1782 -53.1885 179.901 11.985 90.4784 47.5138 63.5457 -66.2799 -11.3398 6.36111e-015 -7.95139e-016 -56.7774 22.0593 42.7812 5.56386 13.1033 179.057 -14.5322 -3.18055e-015 -1.98785e-016 8.01807 4.20941 -9.12661 90 4.22417e-016 -1.59028e-015 6.49377 -9.00026 178.486 -13.8349 -3.18056e-015 -1.19271e-015 12.9917 -2.28707 -0.121448 90 2.98177e-016 3.18055e-015 
257.986 89.7824 22.0661 -21.0596 -80.056 -106.996 3.41411 -1.51012 -0.883917 6.80817 -3.06958 -1.67704 6.80817 -3.06958 -1.67705 -8.30589e-012 -9.0191e-006 -5.27751e-005 0.48763 -1.83849 5.87997 -178.405 -11.6272 -82.1345 9.54799 -40.5145 24.8638 -17.6888 3.18055e-015 -1.59028e-015 -63.7908 -32.1332 -53.2947 179.893 11.9347 90.5187 47.6231 63.541 -66.3364 -11.3946 3.18055e-015 -7.95139e-016 -56.924 22.059 42.8961 5.5582 13.0676 179.061 -14.5044 0 5.96354e-016 7.96997 4.18176 -9.06584 90 2.73329e-016 7.95139e-016 6.47189 -8.98036 178.497 -13.8366 3.18056e-015 3.97569e-016 12.9877 -2.27993 -0.138464 90 5.46658e-016 1.59028e-015 
257.991 89.7798 22.07 -21.0274 -80.0571 -106.965 3.41394 -1.50507 -0.871958 6.80822 -3.05877 -1.65343 6.80822 -3.05877 -1.65344 -8.30589e-012 -9.0191e-006 -5.27751e-005 0.406387 -1.83418 5.82473 -178.411 -11.5842 -82.1343 9.55223 -40.3572 24.8838 -17.7352 6.36111e-015 -0 -63.7197 -32.1818 -53.2443 179.882 11.8848 90.5728 47.752 63.5437 -66.453 -11.3856 -3.18055e-015 -7.95139e-016 -57.0399 22.0363 43.0026 5.52332 13.1146 179.075 -14.5574 -4.77083e-015 3.97569e-016 7.99428 4.22545 -9.16184 90 1.76421e-015 -7.95139e-016 6.46243 -8.98831 178.501 -13.8568 -3.18056e-015 7.95139e-016 13.0026 -2.27734 -0.151643 90 -4.47266e-016 6.36111e-015 
257.998 89.7789 22.0728 -20.8722 -80.076 -106.8 3.41085 -1.49952 -0.863923 6.80231 -3.04717 -1.63777 6.80231 -3.04717 -1.63778 -8.3043e-012 -9.0191e-006 -5.27751e-005 0.342976 -1.85532 5.85616 -178.412 -11.5541 -82.1194 9.47474 -40.2161 24.8334 -17.8011 0 -7.95139e-015 -63.7089 -32.2611 -53.294 179.885 11.8994 90.5583 47.4019 63.5091 -66.1206 -11.392 0 -3.18055e-015 -56.966 22.0478 42.9381 5.50958 13.0366 179.061 -14.5536 1.59028e-015 -0 7.95623 4.15892 -9.01564 90 1.73937e-015 -7.95139e-016 6.48144 -8.96013 178.503 -13.8112 -1.59028e-015 -0 12.9497 -2.24849 -0.170072 90 -4.96962e-016 -3.18055e-015 
258.005 89.778 22.0645 -20.5834 -80.0965 -106.501 3.40532 -1.501 -0.855946 6.79144 -3.04957 -1.62189 6.79144 -3.04957 -1.6219 -8.30748e-012 -9.0191e-006 -5.27751e-005 0.334603 -1.88709 5.88834 -178.408 -11.5568 -82.1029 9.42317 -40.1884 24.7808 -17.7847 3.18055e-015 1.59028e-015 -63.7491 -32.2084 -53.3043 179.886 11.9373 90.5509 47.186 63.531 -65.9413 -11.3715 0 -7.95139e-016 -56.9514 22.0539 42.945 5.50409 12.9849 179.056 -14.5514 0 1.98785e-016 7.96952 4.15912 -9.01625 90 -1.71452e-015 7.95139e-016 6.519 -8.98174 178.506 -13.7526 -1.59028e-015 3.97569e-016 12.9009 -2.21975 -0.188007 90 -4.96962e-016 -0 
258.014 89.7771 22.0514 -20.4086 -80.1341 -106.303 3.39069 -1.50004 -0.851597 6.76244 -3.03939 -1.61387 6.76244 -3.03939 -1.61388 -8.30748e-012 -9.0191e-006 -5.27751e-005 0.358771 -1.94764 5.99587 -178.417 -11.5056 -82.1147 9.46377 -40.2244 24.7481 -17.7326 0 1.59028e-015 -63.6767 -32.1521 -53.1544 179.885 11.9213 90.5583 47.102 63.56 -65.8032 -11.3643 3.18055e-015 -2.38542e-015 -56.8686 22.1373 42.9538 5.48618 12.9674 179.043 -14.5474 0 -1.98785e-016 7.98852 4.19298 -9.09073 90 1.01877e-015 1.59028e-015 6.48773 -9.04419 178.493 -13.777 0 -3.97569e-016 12.9225 -2.23079 -0.187526 90 2.98177e-016 -0 
258.029 89.7761 22.0363 -20.2529 -80.1768 -106.14 3.37395 -1.49765 -0.845296 6.72914 -3.03414 -1.60186 6.72914 -3.03414 -1.60187 -8.30589e-012 -9.0191e-006 -5.27751e-005 0.399707 -2.00405 6.06309 -178.421 -11.4868 -82.1189 9.4491 -40.1995 24.6671 -17.7209 6.36111e-015 -1.59028e-015 -63.6308 -32.2081 -53.1399 179.883 11.8989 90.5652 47.1707 63.6161 -65.8201 -11.3622 0 -7.95139e-016 -56.9687 22.1185 43.041 5.46453 12.969 179.047 -14.5391 -1.59028e-015 -3.97569e-016 7.98297 4.19187 -9.08827 90 -1.09332e-015 7.95139e-016 6.46725 -9.06312 178.495 -13.7888 0 -0 12.954 -2.23775 -0.179503 90 -2.98177e-016 -0 
258.043 89.7751 22.016 -20.0871 -80.2237 -105.957 3.35285 -1.49457 -0.840283 6.68693 -3.03512 -1.59236 6.68693 -3.03512 -1.59237 -8.30748e-012 -9.0191e-006 -5.27751e-005 0.414371 -2.03965 6.09643 -178.429 -11.4685 -82.1457 9.48401 -40.165 24.6229 -17.7178 -3.18055e-015 3.18055e-015 -63.6147 -32.163 -53.0847 179.881 11.9108 90.5768 47.0619 63.6513 -65.7078 -11.3936 -3.18055e-015 -0 -56.9539 22.1534 43.0784 5.45701 12.9434 179.051 -14.5114 3.18055e-015 7.95139e-016 7.98075 4.26046 -9.23919 90 9.44227e-016 7.95139e-016 6.48176 -9.07181 178.495 -13.727 0 1.19271e-015 12.9365 -2.19826 -0.225243 90 7.95139e-016 -1.59028e-015 
258.059 89.7741 21.9892 -19.9368 -80.2648 -105.795 3.3374 -1.48833 -0.835706 6.65621 -3.02217 -1.58398 6.65621 -3.02217 -1.58399 -8.30589e-012 -9.0191e-006 -5.27751e-005 0.414528 -2.16777 6.11903 -178.441 -11.4243 -82.1765 9.52572 -40.1355 24.5936 -17.716 -3.18055e-015 3.18055e-015 -63.5892 -32.2198 -53.0989 179.879 11.9109 90.5867 46.7906 63.6069 -65.3748 -11.4014 6.36111e-015 7.95139e-016 -56.8726 22.1335 42.9836 5.45068 12.8799 179.044 -14.4861 -3.18055e-015 7.95139e-016 7.9918 4.21466 -9.13863 90 1.31695e-015 -7.95139e-016 6.46878 -9.12264 178.495 -13.7321 1.59028e-015 7.95139e-016 12.9446 -2.21291 -0.195643 90 5.46658e-016 1.59028e-015 
258.072 89.7732 21.9603 -19.7825 -80.296 -105.625 3.33405 -1.48247 -0.83651 6.64946 -3.01034 -1.58675 6.64946 -3.01034 -1.58676 -8.30748e-012 -9.0191e-006 -5.27751e-005 0.332328 -2.2202 6.15736 -178.445 -11.4039 -82.1797 9.50699 -40.1103 24.5286 -17.7294 3.18055e-015 9.54166e-015 -63.6125 -32.2229 -53.1298 179.886 11.8915 90.5531 46.7009 63.6706 -65.2113 -11.3714 0 -2.38542e-015 -57.0385 22.0991 43.0872 5.44751 12.8409 179.03 -14.4797 1.59028e-015 -1.98785e-016 8.02492 4.21466 -9.13872 90 1.44119e-015 -0 6.4767 -9.132 178.494 -13.7218 0 -7.95139e-016 12.9661 -2.20317 -0.204492 90 -4.47266e-016 -0 
